<svg xmlns="http://www.w3.org/2000/svg" style="display: none;">
<symbol id="icon-folderempty" viewBox="0 0 32 32">
<path d="M5.5 26.769h21c0.481 0 0.875-0.485 0.875-1.077v-16.154c0-0.592-0.394-1.077-0.875-1.077h-8.165c-0.946 0-1.87-0.377-2.625-1.077l-2.1-1.938c-0.153-0.141-0.334-0.215-0.525-0.215h-7.585c-0.481 0-0.875 0.485-0.875 1.077v19.385c0 0.592 0.394 1.077 0.875 1.077zM26.5 30h-21c-1.93 0-3.5-1.932-3.5-4.308v-19.385c0-2.376 1.57-4.308 3.5-4.308h7.585c0.755 0 1.493 0.303 2.1 0.862l2.1 1.938c0.301 0.283 0.673 0.431 1.050 0.431h8.165c1.93 0 3.5 1.932 3.5 4.308v16.154c0 2.376-1.57 4.308-3.5 4.308z"></path>
</symbol>
<symbol id="icon-edit" viewBox="0 0 32 32">
<path stroke-linejoin="round" stroke-linecap="round" stroke-miterlimit="4" stroke-width="2" d="M19.847 7.311l-15.562 15.562-0.285 5.126 5.126-0.285 15.562-15.562M19.847 7.311l2.309-2.309c1.337-1.337 3.505-1.337 4.842 0s1.337 3.505 0 4.842l-2.309 2.309M19.847 7.311l4.842 4.842"></path>
</symbol>
<symbol id="icon-down" viewBox="0 0 32 32">
<path d="M15.999 3.923c6.669 0 12.078 5.407 12.078 12.076s-5.409 12.078-12.078 12.078c-6.669-0-12.076-5.409-12.076-12.078s5.407-12.076 12.076-12.076zM15.999 5.923c-5.565 0-10.076 4.511-10.076 10.076s4.511 10.078 10.076 10.078c5.565-0 10.078-4.513 10.078-10.078s-4.513-10.076-10.078-10.076zM19.702 13.731c0.378-0.402 1.009-0.423 1.412-0.045s0.423 1.009 0.047 1.412l-3.18 3.391-0.002-0.002c-0.253 0.272-0.558 0.489-0.896 0.637-0.341 0.149-0.71 0.226-1.082 0.227s-0.743-0.077-1.084-0.227c-0.339-0.148-0.645-0.364-0.898-0.637l-3.178-3.389c-0.378-0.403-0.358-1.034 0.045-1.412s1.034-0.358 1.412 0.045l3.184 3.395c0.066 0.071 0.147 0.127 0.236 0.166s0.186 0.059 0.283 0.059c0.096-0 0.193-0.020 0.281-0.059s0.171-0.095 0.236-0.166l0.004-0.006 3.18-3.389z"></path>
</symbol>
<symbol id="icon-Subtract" viewBox="0 0 32 32">
<path d="M16 0c8.837 0 16 7.163 16 16s-7.163 16-16 16c-8.837 0-16-7.163-16-16s7.163-16 16-16zM16 11.429c-2.525 0-4.571 2.047-4.571 4.571s2.047 4.571 4.571 4.571c2.525 0 4.571-2.047 4.571-4.571s-2.047-4.571-4.571-4.571zM20 12l7.429-5.143c-0.353-1.051-1.714-2.286-2.857-2.857l-4.571 8z"></path>
</symbol>
<symbol id="icon-pause" viewBox="0 0 32 32">
<path d="M7 4c-1.656 0-3 1.152-3 2.571v18.857c0 1.42 1.344 2.571 3 2.571h4c1.656 0 3-1.152 3-2.571v-18.857c0-1.42-1.344-2.571-3-2.571h-4zM21 4c-1.656 0-3 1.152-3 2.571v18.857c0 1.42 1.344 2.571 3 2.571h4c1.656 0 3-1.152 3-2.571v-18.857c0-1.42-1.344-2.571-3-2.571h-4z"></path>
</symbol>
<symbol id="icon-play" viewBox="0 0 32 32">
<path d="M7.415 4.263c-0.715-0.364-1.581-0.348-2.285 0.037s-1.131 1.087-1.131 1.843v19.714c0 0.755 0.433 1.457 1.131 1.843s1.569 0.402 2.285 0.038l19.385-9.857c0.738-0.375 1.2-1.098 1.2-1.88s-0.462-1.505-1.2-1.88l-19.385-9.857z"></path>
</symbol>
<symbol id="icon-stop" viewBox="0 0 32 32">
<path d="M7.429 4h17.143c1.891 0 3.429 1.537 3.429 3.429v17.143c0 1.891-1.538 3.429-3.429 3.429h-17.143c-1.891 0-3.429-1.538-3.429-3.429v-17.143c0-1.891 1.538-3.429 3.429-3.429z"></path>
</symbol>
<symbol id="icon-addfolder" viewBox="0 0 32 32">
<path d="M0 27.077v-22.154c0-2.715 1.794-4.923 4-4.923h8.669c0.863 0 1.706 0.346 2.4 0.985l2.4 2.215c0.344 0.323 0.769 0.492 1.2 0.492h9.331c2.206 0 4 2.208 4 4.923v18.462c0 2.715-1.794 4.923-4 4.923h-24c-2.206 0-4-2.208-4-4.923zM16.889 13.13c0-0.501-0.398-0.907-0.889-0.907s-0.889 0.406-0.889 0.907v3.63h-3.556c-0.491 0-0.889 0.406-0.889 0.907s0.398 0.907 0.889 0.907h3.556v3.63c0 0.501 0.398 0.907 0.889 0.907s0.889-0.406 0.889-0.907v-3.63h3.556c0.491 0 0.889-0.406 0.889-0.907s-0.398-0.907-0.889-0.907h-3.556v-3.63z"></path>
</symbol>
</svg>