<svg xmlns="http://www.w3.org/2000/svg" style="display: none;">
<symbol id="icon-folderempty" viewBox="0 0 32 32">
<path d="M5.5 26.769h21c0.481 0 0.875-0.485 0.875-1.077v-16.154c0-0.592-0.394-1.077-0.875-1.077h-8.165c-0.946 0-1.87-0.377-2.625-1.077l-2.1-1.938c-0.153-0.141-0.334-0.215-0.525-0.215h-7.585c-0.481 0-0.875 0.485-0.875 1.077v19.385c0 0.592 0.394 1.077 0.875 1.077zM26.5 30h-21c-1.93 0-3.5-1.932-3.5-4.308v-19.385c0-2.376 1.57-4.308 3.5-4.308h7.585c0.755 0 1.493 0.303 2.1 0.862l2.1 1.938c0.301 0.283 0.673 0.431 1.050 0.431h8.165c1.93 0 3.5 1.932 3.5 4.308v16.154c0 2.376-1.57 4.308-3.5 4.308z"></path>
</symbol>
<symbol id="icon-edit" viewBox="0 0 32 32">
<path stroke-linejoin="round" stroke-linecap="round" stroke-miterlimit="4" stroke-width="2" d="M19.847 7.311l-15.562 15.562-0.285 5.126 5.126-0.285 15.562-15.562M19.847 7.311l2.309-2.309c1.337-1.337 3.505-1.337 4.842 0s1.337 3.505 0 4.842l-2.309 2.309M19.847 7.311l4.842 4.842"></path>
</symbol>
<symbol id="icon-down" viewBox="0 0 32 32">
<path d="M15.999 3.923c6.669 0 12.078 5.407 12.078 12.076s-5.409 12.078-12.078 12.078c-6.669-0-12.076-5.409-12.076-12.078s5.407-12.076 12.076-12.076zM15.999 5.923c-5.565 0-10.076 4.511-10.076 10.076s4.511 10.078 10.076 10.078c5.565-0 10.078-4.513 10.078-10.078s-4.513-10.076-10.078-10.076zM19.702 13.731c0.378-0.402 1.009-0.423 1.412-0.045s0.423 1.009 0.047 1.412l-3.18 3.391-0.002-0.002c-0.253 0.272-0.558 0.489-0.896 0.637-0.341 0.149-0.71 0.226-1.082 0.227s-0.743-0.077-1.084-0.227c-0.339-0.148-0.645-0.364-0.898-0.637l-3.178-3.389c-0.378-0.403-0.358-1.034 0.045-1.412s1.034-0.358 1.412 0.045l3.184 3.395c0.066 0.071 0.147 0.127 0.236 0.166s0.186 0.059 0.283 0.059c0.096-0 0.193-0.020 0.281-0.059s0.171-0.095 0.236-0.166l0.004-0.006 3.18-3.389z"></path>
</symbol>
<symbol id="icon-trash" viewBox="0 0 32 32">
<path d="M12.882 7.747l-0.311 0.89h-3.429c-0.632 0-1.143 0.488-1.143 1.091s0.511 1.091 1.143 1.091h13.714c0.632 0 1.143-0.488 1.143-1.091s-0.511-1.091-1.143-1.091h-3.429l-0.311-0.89c-0.157-0.447-0.593-0.747-1.086-0.747h-4.064c-0.493 0-0.929 0.3-1.086 0.747zM22.857 12.455h-13.714l0.754 11.015c0.057 0.862 0.807 1.531 1.711 1.531h8.786c0.904 0 1.654-0.668 1.711-1.531l0.754-11.015z"></path>
</symbol>
<symbol id="icon-Subtract" viewBox="0 0 32 32">
<path d="M16 0c8.837 0 16 7.163 16 16s-7.163 16-16 16c-8.837 0-16-7.163-16-16s7.163-16 16-16zM16 11.429c-2.525 0-4.571 2.047-4.571 4.571s2.047 4.571 4.571 4.571c2.525 0 4.571-2.047 4.571-4.571s-2.047-4.571-4.571-4.571zM20 12l7.429-5.143c-0.353-1.051-1.714-2.286-2.857-2.857l-4.571 8z"></path>
</symbol>
<symbol id="icon-pause" viewBox="0 0 32 32">
<path d="M7 4c-1.656 0-3 1.152-3 2.571v18.857c0 1.42 1.344 2.571 3 2.571h4c1.656 0 3-1.152 3-2.571v-18.857c0-1.42-1.344-2.571-3-2.571h-4zM21 4c-1.656 0-3 1.152-3 2.571v18.857c0 1.42 1.344 2.571 3 2.571h4c1.656 0 3-1.152 3-2.571v-18.857c0-1.42-1.344-2.571-3-2.571h-4z"></path>
</symbol>
<symbol id="icon-play" viewBox="0 0 32 32">
<path d="M7.415 4.263c-0.715-0.364-1.581-0.348-2.285 0.037s-1.131 1.087-1.131 1.843v19.714c0 0.755 0.433 1.457 1.131 1.843s1.569 0.402 2.285 0.038l19.385-9.857c0.738-0.375 1.2-1.098 1.2-1.88s-0.462-1.505-1.2-1.88l-19.385-9.857z"></path>
</symbol>
<symbol id="icon-stop" viewBox="0 0 32 32">
<path d="M7.429 4h17.143c1.891 0 3.429 1.537 3.429 3.429v17.143c0 1.891-1.538 3.429-3.429 3.429h-17.143c-1.891 0-3.429-1.538-3.429-3.429v-17.143c0-1.891 1.538-3.429 3.429-3.429z"></path>
</symbol>
<symbol id="icon-addfolder" viewBox="0 0 32 32">
<path d="M0 27.077v-22.154c0-2.715 1.794-4.923 4-4.923h8.669c0.863 0 1.706 0.346 2.4 0.985l2.4 2.215c0.344 0.323 0.769 0.492 1.2 0.492h9.331c2.206 0 4 2.208 4 4.923v18.462c0 2.715-1.794 4.923-4 4.923h-24c-2.206 0-4-2.208-4-4.923zM16.889 13.13c0-0.501-0.398-0.907-0.889-0.907s-0.889 0.406-0.889 0.907v3.63h-3.556c-0.491 0-0.889 0.406-0.889 0.907s0.398 0.907 0.889 0.907h3.556v3.63c0 0.501 0.398 0.907 0.889 0.907s0.889-0.406 0.889-0.907v-3.63h3.556c0.491 0 0.889-0.406 0.889-0.907s-0.398-0.907-0.889-0.907h-3.556v-3.63z"></path>
</symbol>
<symbol id="icon-folder" viewBox="0 0 32 32">
<path d="M28 32h-24c-2.206 0-4-2.208-4-4.923v-22.154c0-2.715 1.794-4.923 4-4.923h8.669c0.863 0 1.706 0.346 2.4 0.985l2.4 2.215c0.344 0.323 0.769 0.492 1.2 0.492h9.331c2.206 0 4 2.208 4 4.923v18.462c0 2.715-1.794 4.923-4 4.923z"></path>
</symbol>
<symbol id="icon-loud" viewBox="0 0 32 32">
<path d="M4.625 21.143h2.625l7.334 6.386c0.35 0.305 0.798 0.471 1.263 0.471 1.050 0 1.903-0.836 1.903-1.864v-20.272c0-1.029-0.853-1.864-1.903-1.864-0.465 0-0.913 0.166-1.263 0.471l-7.334 6.386h-2.625c-1.449 0-2.625 1.152-2.625 2.571v5.143c0 1.42 1.176 2.571 2.625 2.571zM26.123 8.018c-0.563-0.45-1.389-0.364-1.848 0.188s-0.372 1.361 0.191 1.811c1.777 1.414 2.909 3.568 2.909 5.984s-1.132 4.57-2.909 5.989c-0.563 0.45-0.645 1.259-0.191 1.811s1.285 0.632 1.848 0.188c2.363-1.886 3.877-4.763 3.877-7.982s-1.515-6.096-3.877-7.982v-0.005zM22.814 12.009c-0.563-0.45-1.389-0.364-1.848 0.188s-0.372 1.361 0.191 1.811c0.591 0.471 0.968 1.189 0.968 1.993s-0.377 1.521-0.968 1.998c-0.563 0.45-0.645 1.259-0.191 1.811s1.285 0.632 1.848 0.188c1.176-0.948 1.936-2.384 1.936-3.996s-0.76-3.048-1.941-3.991h0.005z"></path>
</symbol>
<symbol id="icon-mute" viewBox="0 0 32 32">
<path d="M4.508 21.143h2.508l7.007 6.386c0.334 0.305 0.763 0.471 1.207 0.471 1.003 0 1.818-0.836 1.818-1.864v-20.272c0-1.029-0.815-1.864-1.818-1.864-0.444 0-0.873 0.166-1.207 0.471l-7.007 6.386h-2.508c-1.385 0-2.508 1.152-2.508 2.571v5.143c0 1.42 1.123 2.571 2.508 2.571zM21.177 11.661c-0.491 0.504-0.491 1.318 0 1.816l2.456 2.518-2.456 2.518c-0.491 0.504-0.491 1.318 0 1.816s1.285 0.504 1.771 0l2.456-2.518 2.456 2.518c0.491 0.504 1.285 0.504 1.771 0s0.491-1.318 0-1.816l-2.456-2.518 2.456-2.518c0.491-0.504 0.491-1.318 0-1.816s-1.285-0.504-1.771 0l-2.456 2.518-2.456-2.518c-0.491-0.504-1.285-0.504-1.771 0z"></path>
</symbol>
<symbol id="icon-repeat" viewBox="0 0 32 32">
<path d="M26.059 9.561c0.586-0.586 0.586-1.537 0-2.123l-3-2.999c-0.431-0.431-1.073-0.558-1.636-0.323s-0.923 0.783-0.923 1.387v1.5h-7.5c-4.969 0-9 4.030-9 8.997 0 0.829 0.67 1.5 1.5 1.5s1.5-0.67 1.5-1.5c0-3.313 2.686-5.998 6-5.998h7.5v1.5c0 0.605 0.366 1.153 0.928 1.387s1.205 0.103 1.636-0.323l3-2.999-0.005-0.005zM5.941 22.439c-0.586 0.586-0.586 1.537 0 2.123l3 2.999c0.431 0.431 1.073 0.558 1.636 0.323s0.923-0.782 0.923-1.387v-1.5h7.5c4.969 0 9-4.030 9-8.997 0-0.829-0.67-1.5-1.5-1.5s-1.5 0.67-1.5 1.5c0 3.313-2.686 5.998-6 5.998h-7.5v-1.5c0-0.604-0.366-1.153-0.928-1.387s-1.205-0.103-1.636 0.323l-3 2.999 0.005 0.005z"></path>
</symbol>
<symbol id="icon-next" viewBox="0 0 32 32">
<path d="M5.846 4.263c-0.596-0.364-1.317-0.348-1.904 0.037s-0.942 1.087-0.942 1.843v19.714c0 0.755 0.361 1.457 0.942 1.843s1.308 0.402 1.904 0.038l16.154-9.857c0.615-0.375 1-1.098 1-1.88s-0.385-1.505-1-1.88l-16.154-9.857z"></path>
<path d="M29 26c0 1.105-0.895 2-2 2s-2-0.895-2-2v-20c0-1.105 0.895-2 2-2s2 0.895 2 2v20z"></path>
</symbol>
<symbol id="icon-back" viewBox="0 0 32 32">
<path d="M26.154 27.737c0.596 0.364 1.317 0.348 1.904-0.038s0.942-1.087 0.942-1.843v-19.714c0-0.755-0.361-1.457-0.942-1.843s-1.308-0.402-1.904-0.037l-16.154 9.857c-0.615 0.375-1 1.098-1 1.88s0.385 1.505 1 1.88l16.154 9.857z"></path>
<path d="M3 6c0-1.105 0.895-2 2-2s2 0.895 2 2v20c0 1.105-0.895 2-2 2s-2-0.895-2-2v-20z"></path>
</symbol>
<symbol id="icon-trash" viewBox="0 0 32 32">
<path d="M12.882 7.747l-0.311 0.89h-3.429c-0.632 0-1.143 0.488-1.143 1.091s0.511 1.091 1.143 1.091h13.714c0.632 0 1.143-0.488 1.143-1.091s-0.511-1.091-1.143-1.091h-3.429l-0.311-0.89c-0.157-0.447-0.593-0.747-1.086-0.747h-4.064c-0.493 0-0.929 0.3-1.086 0.747zM22.857 12.455h-13.714l0.754 11.015c0.057 0.862 0.807 1.531 1.711 1.531h8.786c0.904 0 1.654-0.668 1.711-1.531l0.754-11.015z"></path>
</symbol>
<symbol id="icon-editfolder" viewBox="0 0 32 32">
<path d="M28 32c2.206 0 4-2.208 4-4.923v-18.462c0-2.715-1.794-4.923-4-4.923h-9.331c-0.431 0-0.856-0.169-1.2-0.492l-2.4-2.215c-0.694-0.638-1.537-0.985-2.4-0.985h-8.669c-2.206 0-4 2.208-4 4.923v22.154c0 2.715 1.794 4.923 4 4.923h24zM11.44 19.832l7.61-7.61c0.569-0.569 1.492-0.569 2.062 0s0.569 1.492 0 2.062l-7.61 7.61-2.183 0.121 0.121-2.183z"></path>
<path d="M20.128 15.267l-2.062-2.062-0.366 0.366 2.069 2.054 0.359-0.359z"></path>
</symbol>
<symbol id="icon-playfolder" viewBox="0 0 32 32">
<path d="M4 32h24c2.206 0 4-2.208 4-4.923v-18.462c0-2.715-1.794-4.923-4-4.923h-9.331c-0.431 0-0.856-0.169-1.2-0.492l-2.4-2.215c-0.694-0.638-1.537-0.985-2.4-0.985h-8.669c-2.206 0-4 2.208-4 4.923v22.154c0 2.715 1.794 4.923 4 4.923zM11.411 12.461c0.325-0.174 0.724-0.182 1.054-0.017l8.945 4.454c0.341 0.169 0.554 0.496 0.554 0.85s-0.213 0.68-0.554 0.85l-8.945 4.454c-0.33 0.165-0.732 0.157-1.054-0.017s-0.522-0.491-0.522-0.833v-8.908c0-0.341 0.197-0.658 0.522-0.833z"></path>
</symbol>
<symbol id="icon-up" viewBox="0 0 32 32">
<path d="M15.999 3.923c6.669 0 12.078 5.407 12.078 12.076s-5.409 12.078-12.078 12.078c-6.669-0-12.076-5.409-12.076-12.078s5.407-12.076 12.076-12.076zM15.999 5.923c-5.565 0-10.076 4.511-10.076 10.076s4.511 10.078 10.076 10.078c5.565-0 10.078-4.513 10.078-10.078s-4.513-10.076-10.078-10.076zM16.001 12.647c0.376 0 0.749 0.080 1.092 0.232 0.337 0.15 0.638 0.37 0.887 0.643l3.182 3.389c0.376 0.403 0.355 1.035-0.047 1.412s-1.034 0.357-1.412-0.045l-3.193-3.404c-0.032-0.036-0.069-0.068-0.107-0.096l-0.123-0.072c-0.087-0.039-0.182-0.058-0.277-0.059s-0.192 0.020-0.279 0.059c-0.087 0.039-0.166 0.097-0.23 0.168l-0.014 0.016-3.18 3.389c-0.378 0.402-1.009 0.422-1.412 0.045s-0.423-1.009-0.045-1.412l3.178-3.389c0.249-0.273 0.551-0.492 0.889-0.643 0.343-0.153 0.718-0.232 1.094-0.232z"></path>
</symbol>
</svg>